<?xml version="1.0" encoding="UTF-8"?>
<svg xmlns="http://www.w3.org/2000/svg" width="760" height="540" viewBox="0 0 760 540" font-family="sans-serif" font-size="11">
<text x="380" y="28" text-anchor="middle" font-size="14" font-weight="bold">RAMRatio vs HotHitCoverage (lower-left = noisier policy)</text>
<text x="380" y="46" text-anchor="middle" font-size="10" fill="#555">top-left ↖ is ideal: low RAM, high coverage</text>
<line x1="80.0" y1="60.0" x2="80.0" y2="470.0" stroke="black"/>
<line x1="80.0" y1="470.0" x2="540.0" y2="470.0" stroke="black"/>
<line x1="80.0" y1="470.0" x2="80.0" y2="475.0" stroke="black"/>
<text x="80.0" y="488.0" text-anchor="middle">0.00</text>
<line x1="75.0" y1="470.0" x2="80.0" y2="470.0" stroke="black"/>
<text x="72.0" y="473.0" text-anchor="end">0.00</text>
<line x1="195.0" y1="470.0" x2="195.0" y2="475.0" stroke="black"/>
<text x="195.0" y="488.0" text-anchor="middle">0.25</text>
<line x1="75.0" y1="367.5" x2="80.0" y2="367.5" stroke="black"/>
<text x="72.0" y="370.5" text-anchor="end">0.25</text>
<line x1="310.0" y1="470.0" x2="310.0" y2="475.0" stroke="black"/>
<text x="310.0" y="488.0" text-anchor="middle">0.50</text>
<line x1="75.0" y1="265.0" x2="80.0" y2="265.0" stroke="black"/>
<text x="72.0" y="268.0" text-anchor="end">0.50</text>
<line x1="425.0" y1="470.0" x2="425.0" y2="475.0" stroke="black"/>
<text x="425.0" y="488.0" text-anchor="middle">0.75</text>
<line x1="75.0" y1="162.5" x2="80.0" y2="162.5" stroke="black"/>
<text x="72.0" y="165.5" text-anchor="end">0.75</text>
<line x1="540.0" y1="470.0" x2="540.0" y2="475.0" stroke="black"/>
<text x="540.0" y="488.0" text-anchor="middle">1.00</text>
<line x1="75.0" y1="60.0" x2="80.0" y2="60.0" stroke="black"/>
<text x="72.0" y="63.0" text-anchor="end">1.00</text>
<text x="310.0" y="515.0" text-anchor="middle">RAMRatio</text>
<text x="20" y="265.0" text-anchor="middle" transform="rotate(-90 20 265.0)">HotHitCoverage</text>
<text x="88.0" y="72.0" font-size="9" fill="#888" font-style="italic">↖ ideal</text>
<line x1="80.0" y1="470.0" x2="540.0" y2="60.0" stroke="#bbb" stroke-dasharray="3,3"/>
<circle cx="211.7" cy="65.4" r="4" fill="#3e7e3e" fill-opacity="0.75" stroke="#3e7e3e" stroke-width="0.5"/>
<circle cx="211.7" cy="65.4" r="4" fill="#3e7e3e" fill-opacity="0.75" stroke="#3e7e3e" stroke-width="0.5"/>
<circle cx="211.7" cy="65.4" r="4" fill="#3e7e3e" fill-opacity="0.75" stroke="#3e7e3e" stroke-width="0.5"/>
<circle cx="211.7" cy="65.4" r="4" fill="#3e7e3e" fill-opacity="0.75" stroke="#3e7e3e" stroke-width="0.5"/>
<circle cx="211.7" cy="65.4" r="4" fill="#3e7e3e" fill-opacity="0.75" stroke="#3e7e3e" stroke-width="0.5"/>
<circle cx="211.7" cy="65.4" r="4" fill="#3e7e3e" fill-opacity="0.75" stroke="#3e7e3e" stroke-width="0.5"/>
<circle cx="211.7" cy="65.4" r="4" fill="#3e7e3e" fill-opacity="0.75" stroke="#3e7e3e" stroke-width="0.5"/>
<circle cx="211.7" cy="65.4" r="4" fill="#3e7e3e" fill-opacity="0.75" stroke="#3e7e3e" stroke-width="0.5"/>
<circle cx="211.7" cy="65.4" r="4" fill="#3e7e3e" fill-opacity="0.75" stroke="#3e7e3e" stroke-width="0.5"/>
<circle cx="211.7" cy="65.4" r="4" fill="#3e7e3e" fill-opacity="0.75" stroke="#3e7e3e" stroke-width="0.5"/>
<circle cx="108.3" cy="92.5" r="4" fill="#5da95d" fill-opacity="0.75" stroke="#5da95d" stroke-width="0.5"/>
<circle cx="108.3" cy="92.5" r="4" fill="#5da95d" fill-opacity="0.75" stroke="#5da95d" stroke-width="0.5"/>
<circle cx="108.3" cy="92.5" r="4" fill="#5da95d" fill-opacity="0.75" stroke="#5da95d" stroke-width="0.5"/>
<circle cx="108.3" cy="92.5" r="4" fill="#5da95d" fill-opacity="0.75" stroke="#5da95d" stroke-width="0.5"/>
<circle cx="108.3" cy="92.5" r="4" fill="#5da95d" fill-opacity="0.75" stroke="#5da95d" stroke-width="0.5"/>
<circle cx="108.3" cy="92.5" r="4" fill="#5da95d" fill-opacity="0.75" stroke="#5da95d" stroke-width="0.5"/>
<circle cx="108.3" cy="92.5" r="4" fill="#5da95d" fill-opacity="0.75" stroke="#5da95d" stroke-width="0.5"/>
<circle cx="108.3" cy="92.5" r="4" fill="#5da95d" fill-opacity="0.75" stroke="#5da95d" stroke-width="0.5"/>
<circle cx="108.3" cy="92.5" r="4" fill="#5da95d" fill-opacity="0.75" stroke="#5da95d" stroke-width="0.5"/>
<circle cx="108.3" cy="92.5" r="4" fill="#5da95d" fill-opacity="0.75" stroke="#5da95d" stroke-width="0.5"/>
<circle cx="540.0" cy="60.0" r="4" fill="#7a7a7a" fill-opacity="0.75" stroke="#7a7a7a" stroke-width="0.5"/>
<circle cx="540.0" cy="60.0" r="4" fill="#7a7a7a" fill-opacity="0.75" stroke="#7a7a7a" stroke-width="0.5"/>
<circle cx="540.0" cy="60.0" r="4" fill="#7a7a7a" fill-opacity="0.75" stroke="#7a7a7a" stroke-width="0.5"/>
<circle cx="540.0" cy="60.0" r="4" fill="#7a7a7a" fill-opacity="0.75" stroke="#7a7a7a" stroke-width="0.5"/>
<circle cx="540.0" cy="60.0" r="4" fill="#7a7a7a" fill-opacity="0.75" stroke="#7a7a7a" stroke-width="0.5"/>
<circle cx="540.0" cy="60.0" r="4" fill="#7a7a7a" fill-opacity="0.75" stroke="#7a7a7a" stroke-width="0.5"/>
<circle cx="540.0" cy="60.0" r="4" fill="#7a7a7a" fill-opacity="0.75" stroke="#7a7a7a" stroke-width="0.5"/>
<circle cx="540.0" cy="60.0" r="4" fill="#7a7a7a" fill-opacity="0.75" stroke="#7a7a7a" stroke-width="0.5"/>
<circle cx="540.0" cy="60.0" r="4" fill="#7a7a7a" fill-opacity="0.75" stroke="#7a7a7a" stroke-width="0.5"/>
<circle cx="540.0" cy="60.0" r="4" fill="#7a7a7a" fill-opacity="0.75" stroke="#7a7a7a" stroke-width="0.5"/>
<circle cx="80.2" cy="392.9" r="4" fill="#4f7ec3" fill-opacity="0.75" stroke="#4f7ec3" stroke-width="0.5"/>
<circle cx="103.2" cy="262.0" r="4" fill="#4f7ec3" fill-opacity="0.75" stroke="#4f7ec3" stroke-width="0.5"/>
<circle cx="104.3" cy="200.9" r="4" fill="#4f7ec3" fill-opacity="0.75" stroke="#4f7ec3" stroke-width="0.5"/>
<circle cx="105.8" cy="161.5" r="4" fill="#4f7ec3" fill-opacity="0.75" stroke="#4f7ec3" stroke-width="0.5"/>
<circle cx="108.2" cy="135.6" r="4" fill="#4f7ec3" fill-opacity="0.75" stroke="#4f7ec3" stroke-width="0.5"/>
<circle cx="111.1" cy="118.6" r="4" fill="#4f7ec3" fill-opacity="0.75" stroke="#4f7ec3" stroke-width="0.5"/>
<circle cx="117.9" cy="100.3" r="4" fill="#4f7ec3" fill-opacity="0.75" stroke="#4f7ec3" stroke-width="0.5"/>
<circle cx="128.3" cy="86.0" r="4" fill="#4f7ec3" fill-opacity="0.75" stroke="#4f7ec3" stroke-width="0.5"/>
<circle cx="143.0" cy="78.9" r="4" fill="#4f7ec3" fill-opacity="0.75" stroke="#4f7ec3" stroke-width="0.5"/>
<circle cx="162.9" cy="74.2" r="4" fill="#4f7ec3" fill-opacity="0.75" stroke="#4f7ec3" stroke-width="0.5"/>
<circle cx="565.0" cy="80.0" r="4" fill="#3e7e3e"/>
<text x="575.0" y="84.0">fixed-10k</text>
<circle cx="565.0" cy="98.0" r="4" fill="#5da95d"/>
<text x="575.0" y="102.0">fixed-1k</text>
<circle cx="565.0" cy="116.0" r="4" fill="#7a7a7a"/>
<text x="575.0" y="120.0">no-prune</text>
<circle cx="565.0" cy="134.0" r="4" fill="#4f7ec3"/>
<text x="575.0" y="138.0">statistical</text>
</svg>